<?xml version="1.0" standalone="no"?>
<!DOCTYPE svg PUBLIC "-//W3C//DTD SVG 20010904//EN"
 "http://www.w3.org/TR/2001/REC-SVG-20010904/DTD/svg10.dtd">
<svg version="1.0" xmlns="http://www.w3.org/2000/svg"
 width="88.000000pt" height="88.000000pt" viewBox="0 0 88.000000 88.000000"
 preserveAspectRatio="xMidYMid meet">
<metadata>
Created by potrace 1.11, written by Peter Selinger 2001-2013
</metadata>
<g transform="translate(0.000000,88.000000) scale(0.100000,-0.100000)"
fill="#000000" stroke="none">
<path d="M7 613 c-6 -10 -7 -313 -1 -333 3 -13 24 -15 114 -15 l110 0 0 32 0
33 -70 0 -70 0 0 40 0 40 55 0 c54 0 55 0 55 30 0 28 -3 30 -37 31 -21 1 -46
1 -55 0 -18 -2 -26 21 -20 57 4 20 10 22 73 22 l69 0 0 35 0 35 -109 0 c-61 0
-112 -3 -114 -7z"/>
<path d="M262 443 c3 -172 3 -176 25 -179 18 -3 22 1 21 24 -1 46 23 194 38
237 7 22 14 52 14 68 0 26 -2 27 -50 27 l-50 0 2 -177z"/>
<path d="M398 614 c-6 -5 -5 -21 7 -104 10 -70 16 -95 26 -98 5 -2 7 -13 4
-25 -2 -12 3 -44 13 -72 l17 -50 203 0 c111 0 202 2 203 5 1 8 1 292 0 323
l-1 27 -233 0 c-129 0 -236 -3 -239 -6z m346 -66 c8 -43 10 -44 60 -23 48 20
46 10 -4 -15 -22 -11 -40 -22 -40 -25 0 -2 7 -34 16 -71 9 -41 12 -70 6 -76
-6 -6 -12 5 -16 29 -4 21 -12 55 -18 76 l-11 37 -54 -31 c-30 -16 -60 -28 -66
-26 -13 4 55 50 91 61 22 7 23 11 17 69 -6 66 7 62 19 -5z m-205 -88 c14 4 35
4 46 0 19 -7 18 -8 -5 -13 -14 -4 -34 -8 -45 -9 -17 -3 -20 -10 -18 -56 2 -50
-10 -70 -21 -34 -18 60 -14 134 6 114 6 -6 22 -7 37 -2z"/>
<path d="M366 549 c-3 -19 -10 -61 -16 -93 -5 -33 -10 -61 -10 -64 0 -2 12 -2
28 0 30 3 29 -2 16 118 -8 77 -11 83 -18 39z"/>
<path d="M369 369 c-20 -7 -30 -21 -37 -51 -6 -23 -9 -45 -7 -48 4 -7 104 -7
107 0 3 11 -24 110 -30 109 -4 0 -19 -5 -33 -10z"/>
</g>
</svg>
